<svg width="25" height="25" viewBox="0 0 25 25" fill="none" xmlns="http://www.w3.org/2000/svg">
<path fill-rule="evenodd" clip-rule="evenodd" d="M6.94531 3.44922C5.28846 3.44922 3.94531 4.79236 3.94531 6.44922V8.44922C3.94531 10.1061 5.28846 11.4492 6.94531 11.4492H8.94531C10.6022 11.4492 11.9453 10.1061 11.9453 8.44922V6.44922C11.9453 4.79236 10.6022 3.44922 8.94531 3.44922H6.94531ZM16.9453 3.44922C15.2885 3.44922 13.9453 4.79236 13.9453 6.44922V8.44922C13.9453 10.1061 15.2885 11.4492 16.9453 11.4492H18.9453C20.6022 11.4492 21.9453 10.1061 21.9453 8.44922V6.44922C21.9453 4.79236 20.6022 3.44922 18.9453 3.44922H16.9453ZM3.94531 16.4492C3.94531 14.7924 5.28846 13.4492 6.94531 13.4492H8.94531C10.6022 13.4492 11.9453 14.7924 11.9453 16.4492V18.4492C11.9453 20.1061 10.6022 21.4492 8.94531 21.4492H6.94531C5.28846 21.4492 3.94531 20.1061 3.94531 18.4492V16.4492ZM16.9453 13.4492C15.2885 13.4492 13.9453 14.7924 13.9453 16.4492V18.4492C13.9453 20.1061 15.2885 21.4492 16.9453 21.4492H18.9453C20.6022 21.4492 21.9453 20.1061 21.9453 18.4492V16.4492C21.9453 14.7924 20.6022 13.4492 18.9453 13.4492H16.9453Z" fill="#7D8592"/>
</svg>
