<svg width="24" height="25" viewBox="0 0 24 25" fill="none" xmlns="http://www.w3.org/2000/svg">
<path fill-rule="evenodd" clip-rule="evenodd" d="M7 2.44922C7 1.89693 7.44772 1.44922 8 1.44922C8.55228 1.44922 9 1.89693 9 2.44922V3.44922H15V2.44922C15 1.89693 15.4477 1.44922 16 1.44922C16.5523 1.44922 17 1.89693 17 2.44922V3.44922C19.2091 3.44922 21 5.24008 21 7.44922V17.4492C21 19.6584 19.2091 21.4492 17 21.4492H7C4.79086 21.4492 3 19.6584 3 17.4492V7.44922C3 5.24008 4.79086 3.44922 7 3.44922V2.44922ZM15 5.44922C15 6.0015 15.4477 6.44922 16 6.44922C16.5523 6.44922 17 6.0015 17 5.44922L17.1493 5.4547C18.1841 5.53105 19 6.39486 19 7.44922V8.44922H5V7.44922L5.00549 7.29996C5.08183 6.2651 5.94564 5.44922 7 5.44922C7 6.0015 7.44772 6.44922 8 6.44922C8.55228 6.44922 9 6.0015 9 5.44922H15Z" fill="#7D8592"/>
</svg>
