<svg width="25" height="25" viewBox="0 0 25 25" fill="none" xmlns="http://www.w3.org/2000/svg">
<path fill-rule="evenodd" clip-rule="evenodd" d="M23.2094 10.8319C22.9231 10.435 22.4642 10.1997 21.9754 10.1991H20.749L20.7353 9.12585C20.7213 8.03135 19.83 7.15144 18.7355 7.15144H12.9711C12.7541 7.15144 12.5429 7.08079 12.3695 6.95016L10.1368 5.26827C9.78999 5.00702 9.3676 4.86572 8.93341 4.86572H4.49609C3.39152 4.86572 2.49609 5.76115 2.49609 6.86572V18.8657C2.49609 19.9703 3.39152 20.8657 4.49609 20.8657H19.0929C19.9541 20.8657 20.7185 20.3145 20.9905 19.4975L23.4184 12.2047C23.5724 11.74 23.4947 11.2295 23.2094 10.8319ZM8.75359 6.38953C8.97025 6.38953 9.18105 6.4599 9.35427 6.59005L11.7239 8.37047C11.9876 8.56768 12.3076 8.67455 12.6366 8.67525H18.2279C18.7802 8.67525 19.2279 9.12296 19.2279 9.67525V10.1991H6.84696C6.19204 10.1985 5.61046 10.6184 5.40391 11.241L4.01717 15.4087V7.38953C4.01717 6.83725 4.46489 6.38953 5.01717 6.38953H8.75359Z" fill="#7D8592"/>
</svg>
