<svg width="24" height="25" viewBox="0 0 24 25" fill="none" xmlns="http://www.w3.org/2000/svg">
<path fill-rule="evenodd" clip-rule="evenodd" d="M14.027 8.4823C14.7517 10.8769 13.8183 13.4624 11.7294 14.8464C13.4634 15.4844 14.9621 16.633 16.027 18.1398C16.19 18.3707 16.2104 18.6729 16.0801 18.9236C15.9497 19.1742 15.6902 19.3316 15.4071 19.3316L1.75828 19.3321C1.47518 19.3321 1.21565 19.1748 1.08524 18.9241C0.954832 18.6735 0.975266 18.3713 1.13823 18.1404C2.20309 16.6332 3.702 15.4845 5.43628 14.8464C3.34738 13.4624 2.41395 10.8769 3.13865 8.4823C3.86334 6.08768 6.07507 4.44922 8.58282 4.44922C11.0906 4.44922 13.3023 6.08768 14.027 8.4823ZM21.4726 7.75694C22.6404 10.2931 21.7852 13.2998 19.456 14.8464C21.1901 15.4844 22.6888 16.633 23.7536 18.1398C23.9166 18.3707 23.9371 18.6729 23.8067 18.9235C23.6763 19.1742 23.4169 19.3315 23.1338 19.3316L18.8951 19.3321C18.6006 19.3321 18.3326 19.162 18.208 18.8958C17.6254 17.6499 16.8052 16.5291 15.7931 15.5959C15.778 15.582 15.7643 15.5672 15.7506 15.5524C15.4859 15.3114 15.2093 15.0837 14.9219 14.8703C14.6069 14.6367 14.5228 14.2019 14.728 13.8681C16.2618 11.3702 16.1176 8.19278 14.364 5.84317C14.2149 5.64345 14.174 5.38334 14.2545 5.14765C14.335 4.91196 14.5266 4.73089 14.7669 4.66348C17.4607 3.90879 20.3047 5.22077 21.4726 7.75694Z" fill="#7D8592"/>
</svg>
