<svg width="24" height="25" viewBox="0 0 24 25" fill="none" xmlns="http://www.w3.org/2000/svg">
<path fill-rule="evenodd" clip-rule="evenodd" d="M13.0418 3.08547C12.4019 2.69482 11.5973 2.69482 10.9574 3.08546L4.84847 6.8151C3.55891 7.60239 3.57448 9.48037 4.87691 10.2462L11.0088 13.8516C11.636 14.2204 12.4138 14.2195 13.0401 13.8494L19.1334 10.2483C20.4324 9.48059 20.4458 7.60577 19.158 6.8195L13.0418 3.08547ZM19.6027 11.9201C20.0828 11.6472 20.6933 11.8153 20.9662 12.2955C21.2195 12.7413 21.0927 13.2995 20.6889 13.5955L20.5908 13.659L13.9962 17.4064C13.1665 17.8821 12.1538 17.9149 11.296 17.5027L11.1146 17.4076L4.59784 13.6562C4.1192 13.3807 3.95454 12.7693 4.23007 12.2906C4.48592 11.8462 5.03136 11.6725 5.4912 11.8705L5.59563 11.9229L12.109 15.6723C12.3493 15.8094 12.6424 15.8262 12.8979 15.7217L13.0048 15.6694L19.6027 11.9201ZM19.5057 15.58C19.9859 15.3071 20.5963 15.4752 20.8692 15.9553C21.1226 16.4012 20.9958 16.9594 20.5919 17.2553L20.4938 17.3188L13.8993 21.0662C13.0695 21.542 12.0568 21.5748 11.199 21.1626L11.0177 21.0674L4.50088 17.316C4.02224 17.0405 3.85758 16.4291 4.13311 15.9505C4.38896 15.506 4.9344 15.3323 5.39424 15.5304L5.49867 15.5827L12.0121 19.3322C12.2524 19.4692 12.5454 19.4861 12.8009 19.3815L12.9078 19.3293L19.5057 15.58Z" fill="#7D8592"/>
</svg>
