<svg width="25" height="25" viewBox="0 0 25 25" fill="none" xmlns="http://www.w3.org/2000/svg">
<path d="M22.0547 8.19922H16.0547C15.6447 8.19922 15.3047 7.85922 15.3047 7.44922C15.3047 7.03922 15.6447 6.69922 16.0547 6.69922H22.0547C22.4647 6.69922 22.8047 7.03922 22.8047 7.44922C22.8047 7.85922 22.4647 8.19922 22.0547 8.19922Z" fill="white"/>
<path d="M6.05469 8.19922H2.05469C1.64469 8.19922 1.30469 7.85922 1.30469 7.44922C1.30469 7.03922 1.64469 6.69922 2.05469 6.69922H6.05469C6.46469 6.69922 6.80469 7.03922 6.80469 7.44922C6.80469 7.85922 6.46469 8.19922 6.05469 8.19922Z" fill="white"/>
<path d="M10.0547 11.6992C7.71469 11.6992 5.80469 9.78922 5.80469 7.44922C5.80469 5.10922 7.71469 3.19922 10.0547 3.19922C12.3947 3.19922 14.3047 5.10922 14.3047 7.44922C14.3047 9.78922 12.3947 11.6992 10.0547 11.6992ZM10.0547 4.69922C8.53469 4.69922 7.30469 5.92922 7.30469 7.44922C7.30469 8.96922 8.53469 10.1992 10.0547 10.1992C11.5747 10.1992 12.8047 8.96922 12.8047 7.44922C12.8047 5.92922 11.5747 4.69922 10.0547 4.69922Z" fill="white"/>
<path d="M22.0547 19.1992H18.0547C17.6447 19.1992 17.3047 18.8592 17.3047 18.4492C17.3047 18.0392 17.6447 17.6992 18.0547 17.6992H22.0547C22.4647 17.6992 22.8047 18.0392 22.8047 18.4492C22.8047 18.8592 22.4647 19.1992 22.0547 19.1992Z" fill="white"/>
<path d="M8.05469 19.1992H2.05469C1.64469 19.1992 1.30469 18.8592 1.30469 18.4492C1.30469 18.0392 1.64469 17.6992 2.05469 17.6992H8.05469C8.46469 17.6992 8.80469 18.0392 8.80469 18.4492C8.80469 18.8592 8.46469 19.1992 8.05469 19.1992Z" fill="white"/>
<path d="M14.0547 22.6992C11.7147 22.6992 9.80469 20.7892 9.80469 18.4492C9.80469 16.1092 11.7147 14.1992 14.0547 14.1992C16.3947 14.1992 18.3047 16.1092 18.3047 18.4492C18.3047 20.7892 16.3947 22.6992 14.0547 22.6992ZM14.0547 15.6992C12.5347 15.6992 11.3047 16.9292 11.3047 18.4492C11.3047 19.9692 12.5347 21.1992 14.0547 21.1992C15.5747 21.1992 16.8047 19.9692 16.8047 18.4492C16.8047 16.9292 15.5747 15.6992 14.0547 15.6992Z" fill="white"/>
</svg>
