<svg width="16" height="20" viewBox="0 0 16 20" fill="none" xmlns="http://www.w3.org/2000/svg">
<path d="M4.5013 9.86605V7.94938H12.168V9.86605H4.5013ZM4.5013 6.03271V4.11605H12.168V6.03271H4.5013ZM2.58464 11.7827H9.77214C10.2353 11.7827 10.6666 11.8825 11.0659 12.0822C11.4652 12.2818 11.8006 12.5654 12.0721 12.9327L14.0846 15.5681V2.19938H2.58464V11.7827ZM2.58464 17.5327H13.1742L10.5628 14.1067C10.4669 13.9789 10.3511 13.8791 10.2154 13.8072C10.0796 13.7353 9.93186 13.6994 9.77214 13.6994H2.58464V17.5327ZM14.0846 19.4494H2.58464C2.05755 19.4494 1.60634 19.2617 1.23099 18.8864C0.855642 18.511 0.667969 18.0598 0.667969 17.5327V2.19938C0.667969 1.6723 0.855642 1.22108 1.23099 0.845736C1.60634 0.470388 2.05755 0.282715 2.58464 0.282715H14.0846C14.6117 0.282715 15.0629 0.470388 15.4383 0.845736C15.8136 1.22108 16.0013 1.6723 16.0013 2.19938V17.5327C16.0013 18.0598 15.8136 18.511 15.4383 18.8864C15.0629 19.2617 14.6117 19.4494 14.0846 19.4494Z" fill="#7D8592"/>
</svg>
